Coordinates
version=1
nRows=64
nColumns=11
inDegrees=yes

Units are S.I. units (second, meters, Newtons, ...)
If the header above contains a line with 'inDegrees', this indicates whether rotational values are in degrees (yes) or radians (no).

endheader
time	pelvis_tilt	pelvis_tx	pelvis_ty	hip_flexion_l	hip_flexion_r	knee_angle_l	knee_angle_r	ankle_angle_l	ankle_angle_r	lumbar_extension
      2.25000000	     43.12551719	     -0.09410118	      1.08946798	     28.13725154	     39.46874945	    -61.17364625	    -16.34079286	    -39.74347360	    -49.81425212	    -38.53629551
      2.26000000	     43.08753168	     -0.09408563	      1.08946392	     28.19572557	     39.46357762	    -61.19201898	    -16.46470985	    -39.81445836	    -49.48940521	    -38.49707607
      2.27000000	     43.06563551	     -0.09405059	      1.08945968	     28.21749700	     39.40384123	    -61.19030876	    -16.68182678	    -39.83062333	    -49.06385475	    -38.47215273
      2.28000000	     43.10290609	     -0.09393170	      1.08949065	     28.17037415	     39.23665412	    -61.19997626	    -16.90324435	    -39.79302017	    -48.46570623	    -38.48841610
      2.29000000	     43.09186792	     -0.09384131	      1.08950057	     28.17648182	     39.07246344	    -61.19955162	    -17.18083155	    -39.79559653	    -47.71057309	    -38.46391514
      2.30000000	     43.12295651	     -0.09364570	      1.08952666	     28.13630202	     38.81975579	    -61.21735780	    -17.45325615	    -39.76855095	    -46.94927124	    -38.46272587
      2.31000000	     43.11651521	     -0.09348316	      1.08953326	     28.13257614	     38.55304337	    -61.22215332	    -17.80751808	    -39.73302765	    -45.72156836	    -38.43141570
      2.32000000	     43.12692288	     -0.09326253	      1.08955412	     28.10782663	     38.22068810	    -61.23206008	    -18.19764629	    -39.72051624	    -44.63040503	    -38.40793305
      2.33000000	     43.13531292	     -0.09301494	      1.08961046	     28.08110362	     37.83638863	    -61.24848273	    -18.79375642	    -39.66066292	    -42.82655331	    -38.37618965
      2.34000000	     43.20093015	     -0.09269740	      1.08964962	     27.99827674	     37.33506632	    -61.28455015	    -19.34453806	    -39.62104491	    -41.47060366	    -38.39151847
      2.35000000	     43.26524812	     -0.09233221	      1.08969000	     27.91458492	     36.80240615	    -61.32966444	    -19.95442902	    -39.56162145	    -40.59653763	    -38.39585442
      2.36000000	     43.34301172	     -0.09195507	      1.08976920	     27.81446407	     36.19113879	    -61.37524146	    -20.45923597	    -39.51997652	    -40.57886996	    -38.41348735
      2.37000000	     43.39875840	     -0.09149831	      1.08987646	     27.72644215	     35.54777728	    -61.41791344	    -20.96356806	    -39.46779909	    -41.00453950	    -38.39643568
      2.38000000	     43.44796423	     -0.09096318	      1.08997232	     27.61951727	     34.88032170	    -61.43492867	    -21.49413907	    -39.42387757	    -41.72754261	    -38.35914974
      2.39000000	     43.48063502	     -0.09040954	      1.09007284	     27.56534144	     34.23609970	    -61.51144899	    -22.18304156	    -39.34575634	    -42.20629275	    -38.30237970
      2.40000000	     43.50444824	     -0.08981116	      1.09016151	     27.50894050	     33.60048184	    -61.57416664	    -22.94819856	    -39.29221749	    -43.28953005	    -38.22610862
      2.41000000	     43.50515205	     -0.08912908	      1.09024135	     27.46833303	     33.02046777	    -61.63394432	    -23.95556417	    -39.23195427	    -43.81557945	    -38.11360501
      2.42000000	     43.48082633	     -0.08842965	      1.09035444	     27.45160793	     32.49221572	    -61.69335861	    -25.14568777	    -39.18730137	    -44.27059817	    -37.96854922
      2.43000000	     43.40353770	     -0.08771136	      1.09042478	     27.48885215	     32.09494415	    -61.75165282	    -26.47954743	    -39.14144892	    -44.93720023	    -37.76799909
      2.44000000	     43.30787289	     -0.08692899	      1.09048832	     27.55234449	     31.72216220	    -61.81942007	    -28.05132624	    -39.13510996	    -45.28645048	    -37.53412083
      2.45000000	     43.12603268	     -0.08622298	      1.09049026	     27.70312335	     31.54211811	    -61.87921413	    -29.70726945	    -39.05853902	    -46.09844894	    -37.22322524
      2.46000000	     42.95168894	     -0.08547754	      1.09058671	     27.83388070	     31.36187601	    -61.93342777	    -31.41854283	    -39.00996656	    -46.96560279	    -36.90777369
      2.47000000	     42.79661457	     -0.08467685	      1.09064130	     27.93518664	     31.15394139	    -61.99295278	    -33.23683193	    -38.83001961	    -47.73199240	    -36.59480219
      2.48000000	     42.55605593	     -0.08396333	      1.09070219	     28.14978372	     31.10452441	    -62.06010831	    -35.05460034	    -38.86720905	    -48.98437662	    -36.21009661
      2.49000000	     42.26803022	     -0.08319905	      1.09074886	     28.41113891	     31.11473343	    -62.14448642	    -36.88154509	    -38.60640780	    -50.10548514	    -35.76273545
      2.50000000	     41.97642756	     -0.08246187	      1.09081190	     28.68220636	     31.12840281	    -62.22585791	    -38.62213587	    -38.62213162	    -51.50293076	    -35.30759164
      2.51000000	     41.61032332	     -0.08173495	      1.09090290	     29.02989433	     31.24957873	    -62.34295427	    -40.35648679	    -38.48644993	    -52.69218452	    -34.77816346
      2.52000000	     41.20505406	     -0.08099117	      1.09094040	     29.42918360	     31.43425055	    -62.43528397	    -42.05418260	    -38.37872774	    -53.61663791	    -34.20640173
      2.53000000	     40.82079481	     -0.08030484	      1.09100289	     29.79446312	     31.61511019	    -62.54881314	    -43.69968878	    -38.32920624	    -54.13791826	    -33.64239430
      2.54000000	     40.39684209	     -0.07959201	      1.09115840	     30.19165864	     31.87235581	    -62.62681528	    -45.31404828	    -38.43133698	    -54.42911424	    -33.03429452
      2.55000000	     40.00483771	     -0.07892270	      1.09133746	     30.55460182	     32.13774611	    -62.72099286	    -46.90684401	    -38.36589195	    -54.33183889	    -32.46376179
      2.56000000	     39.63504380	     -0.07829875	      1.09147809	     30.90582080	     32.40891031	    -62.85442066	    -48.42988065	    -38.44144049	    -54.05140496	    -31.91676893
      2.57000000	     39.27510961	     -0.07768380	      1.09162246	     31.25087684	     32.73167373	    -63.00472017	    -49.94169179	    -38.51199827	    -53.61498681	    -31.37719990
      2.58000000	     38.88555490	     -0.07706326	      1.09172243	     31.63616931	     33.15119045	    -63.18949508	    -51.43856703	    -38.46291874	    -53.06321415	    -30.80379955
      2.59000000	     38.51566301	     -0.07653391	      1.09178768	     32.01072738	     33.61068220	    -63.37281079	    -52.92960806	    -38.53514632	    -52.38503119	    -30.25877441
      2.60000000	     38.15671291	     -0.07598595	      1.09194226	     32.36163117	     34.10890641	    -63.55904467	    -54.41005196	    -38.56554723	    -51.57904266	    -29.72305942
      2.61000000	     37.81720778	     -0.07549263	      1.09196165	     32.70923219	     34.66600794	    -63.67683345	    -55.91648523	    -38.82680852	    -50.62755186	    -29.21492377
      2.62000000	     37.45926473	     -0.07503169	      1.09196950	     33.06642778	     35.28723749	    -63.98561978	    -57.39255134	    -38.70736586	    -49.65431878	    -28.70048233
      2.63000000	     37.11685194	     -0.07459442	      1.09202049	     33.41636947	     35.87757555	    -64.19512020	    -58.70592392	    -38.87189495	    -48.88506366	    -28.20025427
      2.64000000	     36.83947293	     -0.07421774	      1.09198011	     33.71422192	     36.47755552	    -64.36543768	    -60.03079167	    -39.21887090	    -48.18228209	    -27.78302515
      2.65000000	     36.63045125	     -0.07385024	      1.09192480	     33.93632013	     37.04745066	    -64.71596247	    -61.31112840	    -39.07780226	    -47.58852989	    -27.44509418
      2.66000000	     36.40726692	     -0.07358230	      1.09179498	     34.18501162	     37.59527671	    -64.95993197	    -62.43627242	    -39.34546440	    -46.91216988	    -27.10392034
      2.67000000	     36.24683861	     -0.07330850	      1.09164217	     34.36847806	     38.14041025	    -65.19953862	    -63.59124002	    -39.48207338	    -46.40254740	    -26.83464483
      2.68000000	     36.12271224	     -0.07303447	      1.09141039	     34.51533708	     38.66203721	    -65.39833872	    -64.65408862	    -39.83109996	    -45.87230692	    -26.61317460
      2.69000000	     35.93423333	     -0.07287091	      1.09119358	     34.72568262	     39.18602298	    -65.68668371	    -65.56279320	    -39.69347369	    -45.55745296	    -26.34587059
      2.70000000	     35.82761697	     -0.07278719	      1.09093918	     34.85297123	     39.62355870	    -65.82941035	    -66.38084897	    -40.06946381	    -45.19260501	    -26.18144672
      2.71000000	     35.73013697	     -0.07276048	      1.09075926	     34.96877668	     40.00831333	    -66.04286370	    -67.06098565	    -40.18821885	    -44.99903846	    -26.03852495
      2.72000000	     35.66224333	     -0.07277013	      1.09054777	     35.04806558	     40.35190321	    -66.27786031	    -67.69243348	    -40.09307295	    -44.68571377	    -25.93781634
      2.73000000	     35.64172809	     -0.07281148	      1.09037307	     35.07245223	     40.62135444	    -66.37160297	    -68.25554179	    -40.32233530	    -44.48753783	    -25.89687216
      2.74000000	     35.63079847	     -0.07287636	      1.09020896	     35.08561304	     40.86265050	    -66.50555167	    -68.77002737	    -40.44407607	    -44.01776208	    -25.86698755
      2.75000000	     35.62161103	     -0.07297523	      1.09004779	     35.11316217	     41.05440079	    -66.70473191	    -69.17426377	    -40.32152925	    -43.71132089	    -25.85236433
      2.76000000	     35.72037620	     -0.07299597	      1.08999778	     35.01352675	     41.15018819	    -66.77288778	    -69.60934232	    -40.42721191	    -43.36283803	    -25.93715929
      2.77000000	     35.70222903	     -0.07319961	      1.08988207	     35.03149199	     41.24452930	    -66.82672198	    -69.80424152	    -40.45551140	    -43.15214674	    -25.93625052
      2.78000000	     35.73566174	     -0.07329864	      1.08974576	     35.01211440	     41.31371092	    -66.87845013	    -70.03403333	    -40.54749590	    -42.85593686	    -25.97463077
      2.79000000	     35.76544951	     -0.07344550	      1.08969297	     34.97592511	     41.31183935	    -66.99238366	    -70.12842290	    -40.38385444	    -42.75878487	    -26.01835039
      2.80000000	     35.79528996	     -0.07363223	      1.08963920	     34.95014902	     41.24241614	    -66.92650748	    -70.09558499	    -40.54192291	    -42.78502302	    -26.07156669
      2.81000000	     35.88955955	     -0.07373879	      1.08970250	     34.84631507	     41.09179755	    -66.92119527	    -70.03752002	    -40.49771082	    -42.87441035	    -26.17600733
      2.82000000	     35.91087455	     -0.07388419	      1.08970317	     34.82830956	     40.94368751	    -66.97249935	    -69.83550086	    -40.32848164	    -42.93263475	    -26.22572150
      2.83000000	     35.89560447	     -0.07407499	      1.08969516	     34.84575645	     40.73457801	    -66.84856960	    -69.46069601	    -40.50478559	    -43.15169875	    -26.24438815
      2.84000000	     35.92500281	     -0.07417472	      1.08969116	     34.81444148	     40.46911843	    -66.78811142	    -69.07262742	    -40.40766154	    -43.62494856	    -26.29387438
      2.85000000	     35.99740902	     -0.07420875	      1.08974173	     34.72933810	     40.15345524	    -66.70727607	    -68.67956473	    -40.33047878	    -43.76077003	    -26.38568473
      2.86000000	     36.05320814	     -0.07422222	      1.08978844	     34.66935330	     39.82299020	    -66.62256576	    -68.22547129	    -40.31059839	    -44.06752018	    -26.46093944
      2.87000000	     36.11785817	     -0.07417561	      1.08979368	     34.59522724	     39.45722539	    -66.52998715	    -67.71698188	    -40.27884057	    -44.65278699	    -26.53853144
      2.88000000	     36.20290613	     -0.07411813	      1.08983188	     34.49046112	     39.05960629	    -66.37089861	    -67.19361812	    -40.33510038	    -44.86581869	    -26.63738558
